PathFileType	4	(X/Y/Z)	s10c0303.trc
DataRate	CameraRate	NumFrames	NumMarkers	Units	OrigDataRate	OrigDataStartFrame	OrigNumFrames
200	200	4	50	mm	200	750	2000
Frame#	Time	racr			lacr			c7			jug			rlel			rdr			llel			ldr			s2			lic			ric			lasi			rasi			rpsi			lpsi			rgt			lgt			rth1			rth2			rth3			rth4			rlfc			rmfc			rsh1			rsh2			rsh3			rsh4			rlmal			rmmal			rcal			rtoe			rmt5			lth1			lth2			lth4			lth3			llfc			lmfc			llmal			lmmal			lcal			lmt5			lsh1			lsh2			lsh3			lsh4			ltoe			SBIKE			LBIKE			RBIKE			
		X1	Y1	Z1	X2	Y2	Z2	X3	Y3	Z3	X4	Y4	Z4	X5	Y5	Z5	X6	Y6	Z6	X7	Y7	Z7	X8	Y8	Z8	X9	Y9	Z9	X10	Y10	Z10	X11	Y11	Z11	X12	Y12	Z12	X13	Y13	Z13	X14	Y14	Z14	X15	Y15	Z15	X16	Y16	Z16	X17	Y17	Z17	X18	Y18	Z18	X19	Y19	Z19	X20	Y20	Z20	X21	Y21	Z21	X22	Y22	Z22	X23	Y23	Z23	X24	Y24	Z24	X25	Y25	Z25	X26	Y26	Z26	X27	Y27	Z27	X28	Y28	Z28	X29	Y29	Z29	X30	Y30	Z30	X31	Y31	Z31	X32	Y32	Z32	X33	Y33	Z33	X34	Y34	Z34	X35	Y35	Z35	X36	Y36	Z36	X37	Y37	Z37	X38	Y38	Z38	X39	Y39	Z39	X40	Y40	Z40	X41	Y41	Z41	X42	Y42	Z42	X43	Y43	Z43	X44	Y44	Z44	X45	Y45	Z45	X46	Y46	Z46	X47	Y47	Z47	X48	Y48	Z48	X49	Y49	Z49	X50	Y50	Z50	
750	3.7500	608.386235	1299.185641	6.368490	643.494907	1279.353801	-338.922752	611.187696	1333.912668	-168.313786	601.253111	1189.251889	-164.468887	502.544404	1036.124700	45.906185	640.132142	879.110127	-52.917316	530.239439	1059.519296	-490.061155	645.520423	883.027854	-420.190824	85.519435	1153.456242	-198.276975	247.624475	1151.790452	-360.430060	261.208540	1131.201416	-74.149220	264.287149	1058.779744	-334.608627	261.853953	1055.199342	-76.677175	133.767573	1200.902990	-142.400686	141.698608	1211.883342	-253.113378	151.584111	1045.778344	-16.822417	137.558601	1039.552149	-393.567893	238.633294	916.970876	-6.757583	312.546273	871.591198	-27.675146	351.772175	796.459654	-40.018391	337.026913	898.762345	-37.050923	429.225565	708.228794	-71.610311	399.340506	700.898580	-182.970637	363.499222	617.558346	-34.717185	340.300786	532.762479	-48.707186	281.332825	469.680274	-45.543941	362.790296	523.488699	-79.265165	226.129652	380.269326	-57.005635	245.894998	396.777163	-140.571419	166.317381	359.148701	-101.897251	408.121779	331.942688	-105.827613	327.940928	306.138793	-40.433399	197.787131	918.153305	-411.447844	261.206195	859.101080	-403.234052	290.659958	878.493868	-393.942934	286.964273	774.303679	-401.415502	331.977553	667.869728	-390.828138	335.908587	656.333294	-269.452386	0.541363	472.961291	-386.174211	16.282290	458.153936	-308.226988	-54.098439	489.864308	-337.221800	10.169644	324.250041	-397.732827	217.406857	616.279038	-420.730519	163.769250	548.434450	-404.008756	80.711358	517.184038	-400.117579	183.377641	527.443383	-379.304530	80.444298	284.033775	-346.966025	-217.079008	830.561735	-213.722155	-103.923900	80.662246	-418.353629	-103.938576	80.558288	-18.351136	
751	3.7550	606.868405	1298.232878	5.725863	645.515388	1279.936855	-339.021667	610.845251	1334.811984	-170.080013	601.394259	1189.505726	-165.773354	500.695675	1035.051481	44.290675	640.158100	878.892512	-53.226604	532.831993	1060.035386	-491.351572	645.768600	883.019727	-420.118371	85.292524	1150.910223	-195.484248	245.997391	1149.007266	-360.009627	263.554703	1129.581399	-74.306880	262.800908	1056.745059	-333.821458	263.534049	1053.099152	-76.630098	133.926743	1198.527632	-140.284910	140.837091	1209.026997	-251.535175	153.996578	1041.528666	-15.100290	135.978211	1037.158989	-391.257404	239.033792	911.707399	-5.980501	312.107480	865.067255	-27.623863	349.795432	789.229949	-40.801259	336.950996	891.719026	-37.366589	424.178348	701.825335	-72.445587	394.131112	694.142313	-183.757009	358.690803	609.746646	-35.469858	337.020107	524.410232	-48.843294	278.973334	460.438257	-45.680079	360.274615	515.396691	-78.688910	224.924171	370.124452	-56.687037	245.873670	387.426552	-140.041508	165.168828	349.265279	-101.783703	407.423241	322.686577	-104.792272	326.744359	295.998773	-40.435065	197.988094	917.791548	-410.467315	262.407033	859.692133	-402.935613	291.595997	879.489925	-393.539360	289.422596	775.299065	-401.709722	336.712622	670.138338	-391.678961	340.353077	658.196983	-269.892513	3.162307	482.546767	-385.977203	18.392715	467.752099	-307.287274	-51.597529	500.030863	-337.177820	11.453180	334.017602	-397.823044	222.538364	621.235877	-421.242713	167.798570	554.602737	-404.872599	84.132170	524.765653	-400.095133	187.062036	533.073908	-379.823155	81.473560	293.463676	-346.805738	-217.070946	830.507400	-213.745099	-103.934923	80.649655	-418.340255	-103.933596	80.554047	-18.341319	
752	3.7600	605.631294	1297.543489	4.764611	647.296851	1280.955725	-339.112765	610.389179	1335.341028	-171.516755	601.617081	1189.734287	-167.230847	499.216320	1033.916379	42.677407	640.215269	878.749234	-53.480822	535.539773	1060.601106	-492.318326	645.986507	882.971754	-420.042803	84.971383	1147.997821	-192.556012	244.376891	1146.161232	-359.507973	265.842894	1127.745541	-74.470866	261.310290	1054.555904	-332.748319	264.470372	1049.509207	-78.246257	135.372731	1195.093624	-138.412924	139.915733	1206.052180	-250.014610	156.783314	1037.178477	-13.241703	134.531546	1034.575234	-389.073242	239.476110	906.186225	-5.318501	311.542783	858.344884	-27.554427	347.604070	781.826076	-41.745560	336.764383	884.549993	-37.487927	418.869276	695.425020	-73.290093	385.855742	686.817837	-185.232678	353.569776	601.944228	-35.957201	333.377338	516.096007	-48.772788	276.246148	451.305547	-45.752244	356.669028	507.151587	-78.873649	223.192541	360.123427	-56.588658	241.908243	376.321648	-141.008337	163.672184	339.733263	-101.577179	405.461376	311.113066	-106.375484	325.135843	285.961453	-40.452780	198.286041	917.234644	-409.661848	263.680041	860.140572	-402.629484	292.612548	880.367655	-393.148222	292.270258	776.299246	-402.672843	341.523062	672.516709	-392.636876	344.319823	659.559670	-270.510005	6.274795	491.965787	-385.906777	22.102162	477.297499	-306.875517	-48.612208	510.107283	-337.214432	13.202765	343.407371	-397.898971	228.119538	626.571848	-421.911783	172.402351	561.102696	-405.507982	87.886605	532.216405	-400.055273	191.011676	539.055271	-379.904941	82.898625	302.308139	-346.528623	-217.090297	830.490854	-213.652410	-103.942037	80.655514	-418.356960	-103.925760	80.550424	-18.345775	
753	3.7650	604.264208	1296.674546	3.127501	648.821116	1282.631712	-339.238024	609.628167	1335.882311	-173.132083	601.486305	1190.286198	-170.730642	498.313334	1032.827662	41.327679	640.285651	878.631617	-53.670153	538.368111	1061.157364	-492.927094	646.197853	882.890756	-419.987395	84.746003	1144.799344	-189.722943	240.007211	1141.878386	-355.624143	268.034596	1125.806941	-74.622468	259.895423	1052.410610	-331.814307	266.099801	1046.858294	-77.879489	136.061098	1191.713584	-136.423990	139.282820	1203.285315	-248.775435	159.143123	1032.758798	-11.393114	132.950701	1031.663639	-386.914289	239.910495	900.674557	-4.453850	310.595722	851.170643	-28.399029	345.257604	774.236973	-42.799568	336.390237	877.105257	-37.649619	413.390502	688.947834	-74.180971	380.199026	680.380431	-186.128146	348.155156	594.156631	-36.296597	329.130372	508.006027	-48.739635	273.179496	442.283302	-45.864637	353.035704	499.301567	-78.547591	220.657767	350.545280	-56.642801	240.142226	366.562217	-140.904845	161.720822	330.742732	-101.329422	403.435091	300.872657	-106.316127	323.019529	276.085134	-40.483240	198.640077	916.369277	-408.872851	265.076512	860.519234	-402.271193	293.719519	881.189142	-392.690835	295.066481	777.075338	-402.833227	346.636301	675.202856	-393.639924	348.755734	660.876936	-270.980095	9.882411	501.354098	-385.886330	24.910378	486.325494	-306.975916	-45.033784	520.185721	-337.938286	15.644124	352.961848	-398.011075	233.866919	632.072907	-422.640977	177.304281	567.397217	-406.103756	92.317243	539.794140	-400.251209	195.635909	544.882172	-379.981590	85.194689	311.544341	-346.690358	-217.141766	830.402756	-213.546730	-103.938404	80.636384	-418.331896	-103.951177	80.542771	-18.353271	
